<svg width="266" height="106" viewBox="0 0 266 106" fill="none" xmlns="http://www.w3.org/2000/svg">
<path fill-rule="evenodd" clip-rule="evenodd" d="M75.1752 65.4639L88.0909 78.8234C91.2854 82.1277 91.2854 87.4857 88.0909 90.79C84.8964 94.0942 79.7163 94.0942 76.5218 90.79L63.6214 77.4463L63.6138 65.4797L75.179 65.4678L75.1752 65.4639Z" fill="#007E3C"/>
<path fill-rule="evenodd" clip-rule="evenodd" d="M43.6963 8.52984C43.6963 3.85638 47.3575 0.0693359 51.8757 0.0693359C56.3939 0.0693359 60.0552 3.85638 60.0552 8.52984V32.6094L76.5136 15.5855C79.7081 12.2813 84.8881 12.2813 88.0826 15.5855C91.2771 18.8898 91.2771 24.2478 88.0826 27.5521L71.6243 44.576H94.9039C99.4222 44.576 103.083 48.363 103.083 53.0365C103.083 57.71 99.4222 61.497 94.9039 61.497C84.4367 61.497 74.0345 61.5128 63.6055 61.5247L63.5902 40.9195L43.6925 40.9116C43.6772 30.1203 43.6963 19.3567 43.6963 8.52984Z" fill="#A3C626"/>
<path fill-rule="evenodd" clip-rule="evenodd" d="M28.5812 41.2017L15.6693 27.8461C12.4748 24.5419 12.4748 19.1838 15.6693 15.8796C18.8638 12.5753 24.0439 12.5753 27.2384 15.8796L40.1426 29.2272L40.1618 41.2017L28.5812 41.1978V41.2017Z" fill="#007E3C"/>
<path fill-rule="evenodd" clip-rule="evenodd" d="M60.0595 97.5396C60.0595 102.213 56.3982 106 51.88 106C47.3618 106 43.7006 102.213 43.7006 97.5396V73.4601L27.2422 90.4839C24.0477 93.7882 18.8676 93.7882 15.6731 90.4839C12.4786 87.1797 12.4786 81.8216 15.6731 78.5174L32.1315 61.4935H8.85182C4.33361 61.4935 0.672363 57.7064 0.672363 53.033C0.672363 48.3595 4.33361 44.5725 8.85182 44.5725H32.1315L32.1162 44.5566L60.0633 44.5685L60.0863 73.4878L60.0595 73.4601V97.5396Z" fill="#07A241"/>
<path d="M129.497 69.9869C127.569 69.9869 125.782 69.6347 124.141 68.9303C122.496 68.2259 121.057 67.2485 119.821 65.998C118.586 64.7436 117.633 63.2834 116.967 61.6055C116.302 59.9316 115.965 58.1113 115.965 56.1406C115.965 54.1976 116.309 52.3971 117.002 50.7351C117.694 49.0731 118.651 47.6168 119.875 46.3624C121.099 45.1079 122.545 44.1384 124.213 43.4499C125.881 42.7613 127.68 42.4131 129.608 42.4131C130.943 42.4131 132.24 42.603 133.499 42.9869C134.761 43.3707 135.901 43.9089 136.926 44.5975C137.952 45.286 138.797 46.0656 139.467 46.9362L136.425 50.1969C135.388 49.1759 134.298 48.3964 133.162 47.8582C132.026 47.32 130.824 47.0549 129.566 47.0549C128.33 47.0549 127.186 47.2844 126.138 47.7434C125.086 48.2025 124.16 48.8435 123.356 49.6627C122.553 50.4818 121.937 51.4395 121.501 52.5396C121.069 53.6397 120.851 54.8387 120.851 56.1446C120.851 57.4228 121.08 58.6178 121.535 59.7298C121.994 60.8418 122.633 61.8192 123.464 62.6621C124.29 63.505 125.243 64.1658 126.318 64.6367C127.393 65.1116 128.537 65.3451 129.745 65.3451C130.66 65.3451 131.513 65.2105 132.305 64.9414C133.097 64.6724 133.801 64.2885 134.417 63.7899C135.036 63.2913 135.511 62.7096 135.844 62.0448C136.177 61.38 136.345 60.6756 136.345 59.9356V59.0927L137.011 59.8604H129.336V55.4125H141.089C141.139 55.6935 141.177 56.0061 141.2 56.3504C141.223 56.6946 141.242 57.0231 141.257 57.3278C141.269 57.6364 141.276 57.9016 141.276 58.1311C141.276 59.896 140.974 61.4987 140.37 62.9431C139.765 64.3874 138.931 65.634 137.868 66.6826C136.804 67.7313 135.564 68.5425 134.141 69.1163C132.722 69.6901 131.169 69.979 129.489 69.979L129.497 69.9869ZM151.843 69.9869C150.435 69.9869 149.219 69.6545 148.189 68.9897C147.164 68.3249 146.372 67.391 145.817 66.1919C145.263 64.9889 144.983 63.5446 144.983 61.8588V49.3976H149.505V60.8616C149.505 62.4484 149.869 63.6989 150.6 64.6209C151.33 65.5429 152.348 66.002 153.656 66.002C154.299 66.002 154.884 65.8951 155.416 65.6775C155.948 65.4598 156.411 65.1551 156.805 64.7555C157.199 64.3597 157.509 63.8809 157.731 63.319C157.953 62.7571 158.064 62.1556 158.064 61.5185V49.4015H162.586V69.6109H158.175L158.102 65.3926L158.917 64.9335C158.618 65.8793 158.121 66.7341 157.417 67.5018C156.713 68.2694 155.879 68.8749 154.915 69.3221C153.951 69.7692 152.926 69.9948 151.839 69.9948L151.843 69.9869ZM167.444 69.603V49.3936H171.894L171.966 53.4972L171.224 53.8059C171.446 53.1411 171.779 52.5198 172.227 51.946C172.67 51.3722 173.202 50.8657 173.822 50.4304C174.442 49.9951 175.096 49.6587 175.788 49.4134C176.481 49.172 177.196 49.0493 177.938 49.0493C179.002 49.0493 179.939 49.2274 180.754 49.5875C181.569 49.9436 182.254 50.4937 182.812 51.2377C183.367 51.9776 183.796 52.9234 184.09 54.075L183.386 53.9206L183.646 53.3073C183.945 52.6939 184.339 52.132 184.832 51.6215C185.326 51.111 185.884 50.6559 186.5 50.2602C187.12 49.8645 187.767 49.5638 188.448 49.358C189.129 49.1522 189.787 49.0493 190.429 49.0493C191.914 49.0493 193.15 49.358 194.137 49.9713C195.124 50.5847 195.866 51.5186 196.359 52.7691C196.853 54.0235 197.102 55.5668 197.102 57.4109V69.607H192.541V57.7195C192.541 56.1842 192.251 55.0484 191.669 54.3084C191.088 53.5684 190.192 53.1965 188.98 53.1965C188.337 53.1965 187.744 53.3033 187.201 53.521C186.657 53.7386 186.183 54.0433 185.774 54.443C185.364 54.8387 185.05 55.2977 184.829 55.824C184.607 56.3464 184.496 56.9281 184.496 57.5692V69.6109H179.935V57.6839C179.935 56.2277 179.633 55.1157 179.029 54.348C178.424 53.5803 177.563 53.1965 176.45 53.1965C175.807 53.1965 175.222 53.3033 174.69 53.521C174.159 53.7386 173.688 54.0433 173.282 54.443C172.873 54.8387 172.559 55.2938 172.338 55.8043C172.116 56.3147 172.005 56.8767 172.005 57.49V69.607H167.444V69.603ZM208.254 69.9869C206.547 69.9869 205.009 69.6861 203.636 69.0846C202.263 68.4831 201.145 67.6205 200.281 66.4966L203.211 63.8888C203.953 64.7317 204.78 65.353 205.694 65.7487C206.609 66.1444 207.573 66.3423 208.587 66.3423C209.007 66.3423 209.382 66.2909 209.719 66.188C210.052 66.0851 210.343 65.9307 210.591 65.7289C210.84 65.5232 211.031 65.2818 211.165 65.0008C211.303 64.7198 211.368 64.4112 211.368 64.0788C211.368 63.4654 211.146 62.9787 210.702 62.6225C210.453 62.4682 210.071 62.2822 209.554 62.0646C209.034 61.8469 208.357 61.6372 207.515 61.4314C206.18 61.0753 205.063 60.6598 204.16 60.1849C203.257 59.71 202.561 59.1798 202.064 58.5941C201.643 58.0836 201.333 57.5256 201.138 56.9241C200.939 56.3227 200.843 55.6539 200.843 54.9099C200.843 53.7584 201.172 52.7374 201.826 51.8431C202.481 50.9488 203.353 50.2444 204.439 49.7339C205.526 49.2234 206.739 48.9662 208.074 48.9662C209.061 48.9662 210.021 49.0928 210.947 49.3501C211.873 49.6073 212.734 49.9713 213.526 50.4423C214.317 50.9171 214.995 51.483 215.565 52.1478L213.043 55.0247C212.6 54.5657 212.099 54.1502 211.544 53.7782C210.989 53.4062 210.427 53.1213 209.857 52.9155C209.287 52.7097 208.759 52.6068 208.261 52.6068C207.791 52.6068 207.37 52.6504 206.999 52.7414C206.628 52.8324 206.318 52.9669 206.073 53.145C205.824 53.3231 205.633 53.5487 205.499 53.8177C205.361 54.0868 205.296 54.3876 205.296 54.72C205.319 55.0524 205.4 55.3531 205.537 55.6222C205.671 55.8913 205.866 56.1129 206.111 56.295C206.36 56.473 206.754 56.6788 207.297 56.9083C207.84 57.1378 208.544 57.3555 209.409 57.5613C210.622 57.8937 211.632 58.2656 212.451 58.6732C213.265 59.0808 213.908 59.5557 214.379 60.0939C214.849 60.5529 215.182 61.0911 215.381 61.7045C215.58 62.3178 215.679 63.0064 215.679 63.7741C215.679 64.9771 215.35 66.0415 214.696 66.9755C214.042 67.9093 213.158 68.6454 212.045 69.1796C210.932 69.7178 209.673 69.9869 208.265 69.9869H208.254ZM221.368 69.603V44.2571H225.89V69.603H221.368ZM217.512 53.7663V49.3936H230.152V53.7663H217.512ZM244.346 69.603V56.6788C244.346 55.5787 243.994 54.716 243.29 54.0908C242.586 53.4656 241.675 53.1529 240.566 53.1529C239.529 53.1529 238.588 53.3627 237.75 53.7861C236.909 54.2095 236.132 54.8783 235.413 55.8003L232.597 52.8878C233.76 51.6096 235.045 50.6401 236.453 49.9753C237.861 49.3105 239.384 48.9781 241.014 48.9781C242.571 48.9781 243.91 49.2353 245.034 49.7458C246.159 50.2563 247.031 51.016 247.647 52.0291C248.267 53.0382 248.573 54.2728 248.573 55.7291V69.6109H244.346V69.603ZM238.783 69.9869C237.524 69.9869 236.4 69.7297 235.409 69.2192C234.422 68.7087 233.634 68.0004 233.056 67.0902C232.474 66.184 232.184 65.1156 232.184 63.8888C232.184 62.8164 232.367 61.8746 232.738 61.0713C233.11 60.268 233.66 59.5953 234.387 59.0571C235.118 58.5189 236.032 58.1192 237.13 57.8501C238.228 57.581 239.499 57.4465 240.929 57.4465H246.526L246.194 60.822H240.669C240.004 60.822 239.411 60.8853 238.89 61.0119C238.37 61.1386 237.926 61.3325 237.555 61.5857C237.184 61.843 236.912 62.1437 236.74 62.488C236.568 62.8323 236.48 63.2478 236.48 63.7345C236.48 64.245 236.602 64.6882 236.851 65.0562C237.1 65.4282 237.433 65.7131 237.853 65.9189C238.274 66.1246 238.768 66.2275 239.338 66.2275C240.153 66.2275 240.926 66.0851 241.656 65.8041C242.387 65.5232 243.034 65.1274 243.604 64.617C244.174 64.1065 244.617 63.5287 244.939 62.8916L245.865 65.4994C245.344 66.3937 244.709 67.1733 243.956 67.8381C243.202 68.5029 242.387 69.0253 241.507 69.4091C240.631 69.793 239.72 69.9829 238.783 69.9829V69.9869ZM252.938 69.603V49.3936H257.388L257.46 55.8359L256.867 54.3797C257.139 53.3587 257.61 52.4367 258.275 51.6175C258.941 50.7984 259.714 50.1534 260.594 49.6825C261.47 49.2076 262.38 48.9741 263.318 48.9741C263.739 48.9741 264.14 49.0137 264.523 49.0889C264.905 49.1641 265.223 49.2551 265.468 49.358L264.282 54.4984C263.983 54.3441 263.647 54.2253 263.264 54.1343C262.882 54.0433 262.491 53.9998 262.097 53.9998C261.455 53.9998 260.854 54.1224 260.299 54.3638C259.744 54.6052 259.262 54.9456 258.853 55.3808C258.444 55.8161 258.118 56.3187 257.87 56.8965C257.621 57.4702 257.499 58.1034 257.499 58.7959V69.6109H252.938V69.603Z" fill="#2B2A29"/>
</svg>
